<!--?xml version="1.0" standalone="no"?-->
              <svg id="sw-js-blob-svg" viewBox="0 0 100 100" xmlns="http://www.w3.org/2000/svg" version="1.1">
                    <defs> 
                        <linearGradient id="sw-gradient" x1="0" x2="1" y1="1" y2="0">
                            <stop id="stop1" stop-color="rgba(55, 224.788, 248, 1)" offset="0%"></stop>
                            <stop id="stop2" stop-color="rgba(31, 38.95, 251, 1)" offset="100%"></stop>
                        </linearGradient>
                    </defs>
                <path fill="url(#sw-gradient)" d="M29.3,-34.8C37.3,-28.3,42.6,-18.4,42.5,-8.9C42.5,0.5,37.1,9.4,31.5,17.5C26,25.6,20.3,32.8,12.8,35.8C5.3,38.8,-3.9,37.6,-13.6,35C-23.2,32.5,-33.2,28.7,-37.6,21.5C-42.1,14.3,-40.9,3.7,-38.6,-6.4C-36.3,-16.4,-33,-25.8,-26.3,-32.7C-19.7,-39.5,-9.9,-43.7,0.4,-44.2C10.7,-44.7,21.4,-41.4,29.3,-34.8Z" width="100%" height="100%" transform="translate(50 50)" stroke-width="0" style="transition: all 0.3s ease 0s;" stroke="url(#sw-gradient)"></path>
              </svg>